<?xml version="1.0" encoding="UTF-8" standalone="no"?>
<!-- Created with Inkscape (http://www.inkscape.org/) -->

<svg
   width="152.75119mm"
   height="26.004385mm"
   viewBox="0 0 152.75119 26.004385"
   version="1.1"
   id="svg92229"
   inkscape:version="1.1.1 (c3084ef, 2021-09-22)"
   sodipodi:docname="distribits_logo_a.svg"
   xmlns:inkscape="http://www.inkscape.org/namespaces/inkscape"
   xmlns:sodipodi="http://sodipodi.sourceforge.net/DTD/sodipodi-0.dtd"
   xmlns="http://www.w3.org/2000/svg"
   xmlns:svg="http://www.w3.org/2000/svg">
  <sodipodi:namedview
     id="namedview92231"
     pagecolor="#ffffff"
     bordercolor="#666666"
     borderopacity="1.0"
     inkscape:pageshadow="2"
     inkscape:pageopacity="0.0"
     inkscape:pagecheckerboard="0"
     inkscape:document-units="mm"
     showgrid="false"
     inkscape:zoom="1.9228936"
     inkscape:cx="390.55722"
     inkscape:cy="179.15707"
     inkscape:window-width="2560"
     inkscape:window-height="1387"
     inkscape:window-x="0"
     inkscape:window-y="25"
     inkscape:window-maximized="1"
     inkscape:current-layer="layer1" />
  <defs
     id="defs92226">
    <rect
       x="196.67986"
       y="173.77878"
       width="410.70233"
       height="106.79584"
       id="rect16326-2-4-4-3-8-1-5" />
  </defs>
  <g
     inkscape:label="Layer 1"
     inkscape:groupmode="layer"
     id="layer1"
     transform="translate(109.06553,-67.526663)">
    <path
       style="fill:none;stroke:#d8d8d8;stroke-width:0.294692px;stroke-linecap:butt;stroke-linejoin:miter;stroke-opacity:1"
       d="m -97.41615,84.79364 c 0,0 -2.50292,0.13301 -2.50998,-2.52792"
       id="path55863-7-3-0-4-6-0"
       sodipodi:nodetypes="cc" />
    <path
       style="fill:none;stroke:#d8d8d8;stroke-width:0.294692px;stroke-linecap:butt;stroke-linejoin:miter;stroke-opacity:1"
       d="M -99.92613,82.43483 V 79.82412"
       id="path29989-50-9-10-0-4-4"
       sodipodi:nodetypes="cc" />
    <path
       style="fill:none;stroke:#d8d8d8;stroke-width:0.294692px;stroke-linecap:butt;stroke-linejoin:miter;stroke-opacity:1"
       d="m -97.52284,69.7835 c 0,0 -2.39011,-0.002 -2.40388,2.69658 -0.0118,2.30814 -2.30785,2.31094 -2.30785,2.31094"
       id="path55863-6-3-6"
       sodipodi:nodetypes="csc" />
    <path
       style="fill:none;stroke:#d8d8d8;stroke-width:0.294692px;stroke-linecap:butt;stroke-linejoin:miter;stroke-opacity:1"
       d="m -26.87876,69.79655 c 0,0 -2.39011,-0.002 -2.40389,2.69658 -0.0118,2.30814 -2.30784,2.31094 -2.30784,2.31094"
       id="path55863-6-79-4-58"
       sodipodi:nodetypes="csc" />
    <path
       style="fill:none;stroke:#d8d8d8;stroke-width:0.294692px;stroke-linecap:butt;stroke-linejoin:miter;stroke-opacity:1"
       d="m -69.94686,74.77358 c 0,0 -2.39011,0.002 -2.40389,-2.69658 -0.0118,-2.30814 -2.30784,-2.31094 -2.30784,-2.31094"
       id="path55863-6-4-4-3-74"
       sodipodi:nodetypes="csc" />
    <path
       style="fill:none;stroke:#d8d8d8;stroke-width:0.294692px;stroke-linecap:butt;stroke-linejoin:miter;stroke-opacity:1"
       d="m -97.52284,69.7835 h 23.01729"
       id="path29989-50-3-3-1-93"
       sodipodi:nodetypes="cc" />
    <path
       style="fill:none;stroke:#d8d8d8;stroke-width:0.294692px;stroke-linecap:butt;stroke-linejoin:miter;stroke-opacity:1"
       d="M -26.89291,69.79349 H 5.11928"
       id="path29989-50-3-3-0-4-4"
       sodipodi:nodetypes="cc" />
    <path
       style="fill:none;stroke:#d8d8d8;stroke-width:0.294692px;stroke-linecap:butt;stroke-linejoin:miter;stroke-opacity:1"
       d="M -105.18483,74.78724 H 33.63327"
       id="path29989-0-9-8-0-8-6"
       sodipodi:nodetypes="cc" />
    <path
       style="fill:none;stroke:#d8d8d8;stroke-width:0.294692px;stroke-linecap:butt;stroke-linejoin:miter;stroke-opacity:1"
       d="M -99.88037,79.79097 H 39.8614"
       id="path29989-68-8-8-9-9-4"
       sodipodi:nodetypes="cc" />
    <path
       style="fill:none;stroke:#d8d8d8;stroke-width:0.294692px;stroke-linecap:butt;stroke-linejoin:miter;stroke-opacity:1"
       d="M -97.43469,84.79472 H 33.68415"
       id="path29989-4-2-1-6-52-1"
       sodipodi:nodetypes="cc" />
    <path
       d="m -86.75055,85.3507 h -1.69284 v -1.62772 q -0.52087,0.83557 -1.4975,1.37813 -0.96579,0.54259 -2.04009,0.54259 -1.94241,0 -3.07098,-1.7254 -1.12855,-1.73624 -1.12855,-4.39485 0,-2.485 1.17195,-4.11273 1.18282,-1.63857 3.12524,-1.63857 2.13774,0 3.43993,1.73624 v -5.46917 h 1.69284 z m -1.69284,-3.46163 v -4.6987 q -1.21536,-1.95327 -2.9299,-1.95327 -1.39985,0 -2.21372,1.24792 -0.81386,1.23708 -0.81386,3.13609 0,1.95326 0.75961,3.23374 0.77046,1.26963 2.10519,1.26963 0.64024,0 1.29134,-0.34725 0.65109,-0.34725 1.22621,-1.04175 0.57513,-0.69449 0.57513,-0.84641 z"
       style="font-size:48px;line-height:0.8;font-family:'Andale Mono';-inkscape-font-specification:'Andale Mono, Normal';white-space:pre;stroke-width:0.462998;fill:#818181;fill-opacity:1"
       id="path62571-0-8-2-1" />
    <path
       d="m -76.2029,85.3507 h -1.69283 v -9.84231 h -3.33141 v -1.46495 h 5.02424 z"
       style="font-size:48px;line-height:0.8;font-family:'Andale Mono';-inkscape-font-specification:'Andale Mono, Normal';white-space:pre;stroke-width:0.462998;fill:#818181;fill-opacity:1"
       id="path62573-7-4-2-5"
       sodipodi:nodetypes="ccccccc" />
    <path
       d="m -61.23868,75.66031 q -1.42154,-0.46661 -2.68032,-0.46661 -1.37813,0 -2.18114,0.46661 -0.80302,0.45576 -0.80302,1.22623 0,0.48831 0.36896,0.85725 0.36894,0.35811 1.4758,0.6728 l 1.61688,0.46662 q 1.1177,0.31469 1.82305,0.75959 0.70535,0.43407 1.05259,1.06346 0.3581,0.61853 0.3581,1.44324 0,1.61688 -1.35644,2.56096 -1.35643,0.93323 -3.45077,0.93323 -2.08349,0 -3.43993,-0.62939 l 0.32555,-1.46495 q 1.42154,0.6728 3.04927,0.6728 1.4107,0 2.28966,-0.52088 0.88983,-0.53172 0.88983,-1.39984 0,-0.58598 -0.44491,-1.04175 -0.43406,-0.46661 -2.06179,-0.96578 -1.31303,-0.4015 -1.93157,-0.59683 -0.61853,-0.20618 -1.15026,-0.59683 -0.53171,-0.39065 -0.81386,-0.93324 -0.27129,-0.54257 -0.27129,-1.21536 0,-1.46496 1.28048,-2.32223 1.28048,-0.85726 3.39652,-0.85726 1.36729,0 3.03843,0.46661 z"
       style="font-size:48px;line-height:0.8;font-family:'Andale Mono';-inkscape-font-specification:'Andale Mono, Normal';white-space:pre;stroke-width:0.462998;fill:#818181;fill-opacity:1"
       id="path62575-2-6-5-8" />
    <path
       d="m -46.62169,84.84068 q -1.70369,0.78131 -3.35311,0.78131 -3.02758,0 -3.02758,-3.2012 v -6.9124 h -2.1703 v -1.46495 h 2.1703 v -3.09268 h 1.64943 v 3.09268 h 3.84143 v 1.46495 h -3.84143 v 6.4675 q 0,1.03088 0.45577,1.60601 0.45576,0.56429 1.23707,0.56429 1.38899,0 2.74542,-0.61854 z"
       style="font-size:48px;line-height:0.8;font-family:'Andale Mono';-inkscape-font-specification:'Andale Mono, Normal';white-space:pre;stroke-width:0.462998;fill:#818181;fill-opacity:1"
       id="path62577-3-6-9-3" />
    <path
       d="m -33.23094,74.34728 -0.68365,1.62772 q -1.1177,-0.48832 -1.93156,-0.48832 -0.74875,0 -1.46496,0.43406 -0.71619,0.42321 -1.32388,1.22622 -0.59683,0.79216 -0.59683,0.88983 v 7.31391 h -1.68199 V 74.04344 h 1.68199 v 2.28966 q 1.35644,-2.56095 3.51588,-2.56095 1.28048,0 2.485,0.57513 z"
       style="font-size:48px;line-height:0.8;font-family:'Andale Mono';-inkscape-font-specification:'Andale Mono, Normal';white-space:pre;stroke-width:0.462998;fill:#818181;fill-opacity:1"
       id="path62579-5-2-3-7" />
    <path
       d="m -22.90031,85.3507 h -1.69283 v -9.84231 h -3.33141 v -1.46495 h 5.02424 z"
       style="font-size:48px;line-height:0.8;font-family:'Andale Mono';-inkscape-font-specification:'Andale Mono, Normal';white-space:pre;stroke-width:0.462998;fill:#818181;fill-opacity:1"
       id="path62581-8-5-3-2"
       sodipodi:nodetypes="ccccccc" />
    <path
       d="m -13.7742,75.50839 q 0.56429,-0.78132 1.51921,-1.25878 0.96579,-0.47746 2.02924,-0.47746 1.97497,0 3.07097,1.58432 1.10686,1.58432 1.10686,4.16697 0,2.61522 -1.17197,4.37316 -1.17196,1.74709 -3.13609,1.74709 -1.05259,0 -1.97497,-0.52087 -0.91152,-0.53173 -1.44325,-1.39984 v 1.62772 h -1.69283 V 70.03922 h 1.69283 z m 0,1.68198 v 4.6987 q 0.47747,0.95493 1.29133,1.59518 0.81386,0.64023 1.68199,0.64023 1.36728,0 2.1703,-1.30217 0.81386,-1.30219 0.81386,-3.2012 0,-1.95327 -0.77046,-3.16864 -0.77045,-1.21537 -2.14859,-1.21537 -1.79051,0 -3.03843,1.95327 z"
       style="font-size:48px;line-height:0.8;font-family:'Andale Mono';-inkscape-font-specification:'Andale Mono, Normal';white-space:pre;stroke-width:0.462998;fill:#818181;fill-opacity:1"
       id="path62583-3-1-0-3" />
    <path
       d="M 3.75099,85.3507 H 2.05815 v -9.84231 h -3.33141 v -1.46495 h 5.02425 z"
       style="font-size:48px;line-height:0.8;font-family:'Andale Mono';-inkscape-font-specification:'Andale Mono, Normal';white-space:pre;stroke-width:0.462998;fill:#818181;fill-opacity:1"
       id="path62585-5-7-9-51"
       sodipodi:nodetypes="ccccccc" />
    <path
       d="m 20.00654,84.84068 q -1.70369,0.78131 -3.35312,0.78131 -3.02756,0 -3.02756,-3.2012 v -6.9124 h -2.1703 v -1.46495 h 2.1703 v -3.09268 h 1.64942 v 3.09268 h 3.84143 v 1.46495 h -3.84143 v 6.4675 q 0,1.03088 0.45576,1.60601 0.45577,0.56429 1.23708,0.56429 1.38899,0 2.74543,-0.61854 z"
       style="font-size:48px;line-height:0.8;font-family:'Andale Mono';-inkscape-font-specification:'Andale Mono, Normal';white-space:pre;stroke-width:0.462998;fill:#818181;fill-opacity:1"
       id="path62587-6-1-5-3" />
    <path
       d="M 32.04085,75.66031 Q 30.6193,75.1937 29.36053,75.1937 q -1.37814,0 -2.18116,0.46661 -0.803,0.45576 -0.803,1.22623 0,0.48831 0.36895,0.85725 0.36895,0.35811 1.4758,0.6728 l 1.61688,0.46662 q 1.1177,0.31469 1.82305,0.75959 0.70535,0.43407 1.0526,1.06346 0.3581,0.61853 0.3581,1.44324 0,1.61688 -1.35644,2.56096 -1.35644,0.93323 -3.45079,0.93323 -2.08348,0 -3.43991,-0.62939 l 0.32554,-1.46495 q 1.42155,0.6728 3.04927,0.6728 1.41069,0 2.28967,-0.52088 0.88982,-0.53172 0.88982,-1.39984 0,-0.58598 -0.44491,-1.04175 -0.43406,-0.46661 -2.06179,-0.96578 -1.31302,-0.4015 -1.93157,-0.59683 -0.61853,-0.20618 -1.15025,-0.59683 -0.53173,-0.39065 -0.81386,-0.93324 -0.27129,-0.54257 -0.27129,-1.21536 0,-1.46496 1.28048,-2.32223 1.28047,-0.85726 3.39652,-0.85726 1.36729,0 3.03842,0.46661 z"
       style="font-size:48px;line-height:0.8;font-family:'Andale Mono';-inkscape-font-specification:'Andale Mono, Normal';white-space:pre;stroke-width:0.462998;fill:#818181;fill-opacity:1"
       id="path62589-1-8-4-8" />
    <circle
       cx="-77.043617"
       cy="69.746376"
       r="2.2197158"
       fill="#fba304"
       data-name="Ellipse 266"
       id="circle14283-9-2-7-4-9-7"
       style="fill:#ff6584;fill-opacity:1;stroke-width:1.22501" />
    <circle
       cx="-107.03822"
       cy="74.903206"
       r="1.8013443"
       fill="#fba304"
       data-name="Ellipse 266"
       id="circle14283-9-2-7-4-8-1-0"
       style="fill:none;stroke:#929292;stroke-width:0.451934;stroke-miterlimit:4;stroke-dasharray:none;stroke-opacity:1" />
    <circle
       cx="-77.043617"
       cy="74.771156"
       r="1.1509176"
       fill="#fba304"
       data-name="Ellipse 266"
       id="circle14283-9-7-09-9-0-93-6"
       style="fill:#ff6584;fill-opacity:1;stroke-width:0.635164" />
    <circle
       cx="-77.043617"
       cy="84.988655"
       r="1.1509176"
       fill="#fba304"
       data-name="Ellipse 266"
       id="circle14283-9-7-9-53-2-7-8-9"
       style="fill:#ff6584;fill-opacity:1;stroke-width:0.635164" />
    <circle
       cx="-23.76762"
       cy="69.746376"
       r="2.2197158"
       fill="#fba304"
       data-name="Ellipse 266"
       id="circle14283-9-1-9-8-1-7-1"
       style="fill:#ff6584;fill-opacity:1;stroke-width:1.22501" />
    <circle
       cx="-23.76762"
       cy="74.771156"
       r="1.1509176"
       fill="#fba304"
       data-name="Ellipse 266"
       id="circle14283-9-7-14-8-3-2-0-9"
       style="fill:#ff6584;fill-opacity:1;stroke-width:0.635164" />
    <circle
       cx="-23.76762"
       cy="84.988655"
       r="1.1509176"
       fill="#fba304"
       data-name="Ellipse 266"
       id="circle14283-9-7-9-9-9-9-2-0-0"
       style="fill:#ff6584;fill-opacity:1;stroke-width:0.635164" />
    <path
       style="fill:none;stroke:#d8d8d8;stroke-width:0.294692px;stroke-linecap:butt;stroke-linejoin:miter;stroke-opacity:1"
       d="m 9.45464,74.75759 c 0,0 -2.39011,0.002 -2.40387,-2.69658 -0.0118,-2.30814 -2.30786,-2.31094 -2.30786,-2.31094"
       id="path55863-6-4-0-9-4"
       sodipodi:nodetypes="csc" />
    <circle
       cx="2.9898574"
       cy="69.746376"
       r="2.2197158"
       fill="#fba304"
       data-name="Ellipse 266"
       id="circle14283-9-0-1-6-7-3-5"
       style="fill:#ff6584;fill-opacity:1;stroke-width:1.22501" />
    <circle
       cx="2.9898574"
       cy="74.771156"
       r="1.1509176"
       fill="#fba304"
       data-name="Ellipse 266"
       id="circle14283-9-7-7-2-4-4-3-8"
       style="fill:#ff6584;fill-opacity:1;stroke-width:0.635164" />
    <circle
       cx="2.9898574"
       cy="84.988655"
       r="1.1509176"
       fill="#fba304"
       data-name="Ellipse 266"
       id="circle14283-9-7-9-5-8-7-7-6-17"
       style="fill:#ff6584;fill-opacity:1;stroke-width:0.635164" />
    <circle
       cx="-87.523506"
       cy="69.746376"
       r="1.1509176"
       fill="#fba304"
       data-name="Ellipse 266"
       id="circle14283-9-7-1-0-3-7-0-1"
       style="fill:#ff6584;fill-opacity:1;stroke-width:0.635164" />
    <circle
       cx="-87.523506"
       cy="84.988655"
       r="1.1509176"
       fill="#fba304"
       data-name="Ellipse 266"
       id="circle14283-9-7-6-1-1-3-5-3"
       style="fill:#ff6584;fill-opacity:1;stroke-width:0.635164" />
    <circle
       cx="-61.196178"
       cy="74.771156"
       r="1.1509176"
       fill="#fba304"
       data-name="Ellipse 266"
       id="circle14283-9-7-0-8-4-9-4-08"
       style="fill:#ff6584;fill-opacity:1;stroke-width:0.635164" />
    <circle
       cx="-67.726265"
       cy="84.487328"
       r="1.1509176"
       fill="#fba304"
       data-name="Ellipse 266"
       id="circle14283-9-7-44-14-9-3-1-5"
       style="fill:#ff6584;fill-opacity:1;stroke-width:0.635164" />
    <circle
       cx="32.215992"
       cy="74.771156"
       r="1.1509176"
       fill="#fba304"
       data-name="Ellipse 266"
       id="circle14283-9-7-0-4-9-6-7-3-6"
       style="fill:#ff6584;fill-opacity:1;stroke-width:0.635164" />
    <circle
       cx="25.685932"
       cy="84.487328"
       r="1.1509176"
       fill="#fba304"
       data-name="Ellipse 266"
       id="circle14283-9-7-44-1-5-9-1-3-43"
       style="fill:#ff6584;fill-opacity:1;stroke-width:0.635164" />
    <circle
       cx="-47.474712"
       cy="74.771156"
       r="1.1509176"
       fill="#fba304"
       data-name="Ellipse 266"
       id="circle14283-9-7-97-0-0-7-8-4"
       style="fill:#ff6584;fill-opacity:1;stroke-width:0.635164" />
    <circle
       cx="-56.239635"
       cy="74.771156"
       r="1.1509176"
       fill="#fba304"
       data-name="Ellipse 266"
       id="circle14283-9-7-53-2-3-5-3-7"
       style="fill:#ff6584;fill-opacity:1;stroke-width:0.635164" />
    <circle
       cx="-47.474712"
       cy="84.487328"
       r="1.1509176"
       fill="#fba304"
       data-name="Ellipse 266"
       id="circle14283-9-7-90-3-6-7-11-5"
       style="fill:#ff6584;fill-opacity:1;stroke-width:0.635164" />
    <circle
       cx="19.267384"
       cy="74.771156"
       r="1.1509176"
       fill="#fba304"
       data-name="Ellipse 266"
       id="circle14283-9-7-97-4-9-5-4-7-9"
       style="fill:#ff6584;fill-opacity:1;stroke-width:0.635164" />
    <circle
       cx="10.505544"
       cy="74.771156"
       r="1.1509176"
       fill="#fba304"
       data-name="Ellipse 266"
       id="circle14283-9-7-53-0-0-4-4-9-3"
       style="fill:#ff6584;fill-opacity:1;stroke-width:0.635164" />
    <circle
       cx="19.267384"
       cy="84.487328"
       r="1.1509176"
       fill="#fba304"
       data-name="Ellipse 266"
       id="circle14283-9-7-90-0-1-2-9-2-6"
       style="fill:#ff6584;fill-opacity:1;stroke-width:0.635164" />
    <circle
       cx="-40.057476"
       cy="74.80172"
       r="1.1509176"
       fill="#fba304"
       data-name="Ellipse 266"
       id="circle14283-9-7-63-3-3-9-90-51"
       style="fill:#ff6584;fill-opacity:1;stroke-width:0.635164" />
    <circle
       cx="-33.754223"
       cy="74.771156"
       r="1.1509176"
       fill="#fba304"
       data-name="Ellipse 266"
       id="circle14283-9-7-2-6-1-6-1-8"
       style="fill:#ff6584;fill-opacity:1;stroke-width:0.635164" />
    <circle
       cx="-14.529918"
       cy="69.746376"
       r="1.1509176"
       fill="#fba304"
       data-name="Ellipse 266"
       id="circle14283-9-7-48-4-2-6-6-9"
       style="fill:#ff6584;fill-opacity:1;stroke-width:0.635164" />
    <circle
       cx="-14.529918"
       cy="84.988655"
       r="1.1509176"
       fill="#fba304"
       data-name="Ellipse 266"
       id="circle14283-9-7-8-0-5-2-0-09"
       style="fill:#ff6584;fill-opacity:1;stroke-width:0.635164" />
    <circle
       cx="-40.172466"
       cy="84.988655"
       r="1.1509176"
       fill="#fba304"
       data-name="Ellipse 266"
       id="circle14283-9-7-9-7-2-6-3-4-7"
       style="fill:#ff6584;fill-opacity:1;stroke-width:0.635164" />
    <g
       aria-label="8a6d1c60e7fdf4194320245ae0c8df0ce682c677"
       transform="matrix(0.47063347,0,0,0.47063347,-201.97194,7.18713)"
       id="text16324-1-7-4-4-5-3-2"
       style="font-size:13.5784px;line-height:0.8;font-family:'Nanum Pen';-inkscape-font-specification:'Nanum Pen, Normal';white-space:pre;shape-inside:url(#rect16326-2-4-4-3-8-1-5)">
      <path
         d="m 201.69203,178.1525 q 0.95473,0.27846 1.4785,0.9481 0.53041,0.66964 0.53041,1.5647 0,1.28623 -0.85528,2.04206 -0.84865,0.75583 -2.0951,0.75583 -1.30613,0 -2.14815,-0.76246 -0.83539,-0.76246 -0.83539,-2.02217 0,-0.88843 0.54367,-1.5647 0.54366,-0.67627 1.51828,-0.96136 -0.77571,-0.19891 -1.24645,-0.76246 -0.46411,-0.57019 -0.46411,-1.27298 0,-0.90169 0.71605,-1.631 0.71605,-0.73594 1.88958,-0.73594 1.16026,0 1.91609,0.72931 0.76246,0.72931 0.76246,1.63763 0,0.6829 -0.47737,1.25972 -0.47736,0.57018 -1.23319,0.77572 z m -0.96799,-0.45085 q 0.0332,0 0.31824,-0.0796 0.28509,-0.0796 0.48399,-0.19227 0.20554,-0.11934 0.37792,-0.29836 0.17238,-0.17901 0.27846,-0.41769 0.10608,-0.24531 0.10608,-0.54367 0,-0.63648 -0.45747,-1.05418 -0.45748,-0.42432 -1.10722,-0.42432 -0.62986,0 -1.08071,0.43095 -0.45084,0.43096 -0.45084,1.04755 0,0.39118 0.15912,0.6829 0.16575,0.29172 0.40443,0.47074 0.24532,0.17901 0.55693,0.27846 0.31824,0.0994 0.41107,0.0994 z m 0,0.92821 q -1.81665,0.53041 -1.81665,1.99566 0,0.85528 0.5503,1.37242 0.5503,0.51052 1.29287,0.51052 0.76908,0 1.29286,-0.50389 0.53041,-0.51051 0.53041,-1.37905 0,-0.65638 -0.36466,-1.17353 -0.36465,-0.52377 -1.48513,-0.82213 z"
         style="font-family:'Andale Mono';-inkscape-font-specification:'Andale Mono, Normal';fill:#c6c6c6"
         id="path3622" />
      <path
         d="m 211.74322,183.28418 h -1.02766 q -0.12597,-0.4177 -0.12597,-1.11386 -0.8818,1.29287 -2.40009,1.29287 -0.76909,0 -1.35916,-0.54367 -0.58345,-0.55029 -0.58345,-1.4122 0,-0.51052 0.20553,-0.90169 0.20554,-0.39118 0.60334,-0.65638 0.3978,-0.27184 0.96799,-0.42433 0.57019,-0.15912 1.35254,-0.21879 l 1.16026,-0.0928 v -0.33151 q 0,-1.77686 -1.65752,-1.77686 -0.39117,0 -0.99451,0.17239 -0.59671,0.16575 -1.02766,0.3978 l -0.27184,-0.74257 q 1.41221,-0.72268 2.62552,-0.72268 2.3603,0 2.3603,2.49954 v 2.97028 q 0,0.90169 0.17238,1.60448 z m -1.20667,-2.0487 v -1.25308 q -1.39895,0.12597 -1.92272,0.23868 -0.51715,0.10608 -0.90169,0.40444 -0.37792,0.29835 -0.37792,0.80886 0,0.46411 0.32488,0.7492 0.32487,0.2851 0.82876,0.2851 0.55029,0 1.09396,-0.32488 0.54367,-0.3315 0.95473,-0.90832 z"
         style="font-family:'Andale Mono';-inkscape-font-specification:'Andale Mono, Normal';fill:#c6c6c6"
         id="path3624" />
      <path
         d="m 215.36325,178.41107 q 0.87517,-0.70942 1.90283,-0.70942 1.18678,0 1.97576,0.76246 0.79561,0.75583 0.79561,1.95587 0,1.31939 -0.70279,2.1813 -0.70278,0.86191 -1.87631,0.86191 -1.4984,0 -2.37357,-1.37243 -0.87517,-1.37905 -0.87517,-3.36808 0,-2.12162 0.90832,-3.54709 0.91496,-1.42547 2.49954,-1.42547 1.09397,0 1.88958,0.32488 l -0.17239,0.96799 q -0.92158,-0.33813 -1.68404,-0.33813 -1.0807,0 -1.68404,1.03429 -0.60333,1.03429 -0.60333,2.67192 z m 0.0332,0.93484 q 0,1.20004 0.56355,2.1813 0.56356,0.98125 1.41884,0.98125 0.72268,0 1.11385,-0.53041 0.39118,-0.5304 0.39118,-1.46525 0,-0.86191 -0.43096,-1.35916 -0.43095,-0.49726 -1.2133,-0.49726 -1.0144,0 -1.84316,0.68953 z"
         style="font-family:'Andale Mono';-inkscape-font-specification:'Andale Mono, Normal';fill:#c6c6c6"
         id="path3626" />
      <path
         d="m 227.8278,183.28418 h -1.0343 v -0.99451 q -0.31824,0.51051 -0.91495,0.84201 -0.59007,0.33151 -1.24645,0.33151 -1.18679,0 -1.87631,-1.05418 -0.68953,-1.06082 -0.68953,-2.68519 0,-1.51828 0.71605,-2.51279 0.72267,-1.00115 1.90946,-1.00115 1.30612,0 2.10173,1.06082 v -3.34156 h 1.0343 z m -1.0343,-2.115 v -2.87082 q -0.74257,-1.19342 -1.79012,-1.19342 -0.85528,0 -1.35253,0.76246 -0.49726,0.75583 -0.49726,1.9161 0,1.19341 0.46411,1.97576 0.47073,0.77572 1.28623,0.77572 0.39118,0 0.78898,-0.21216 0.39781,-0.21217 0.7492,-0.63649 0.35139,-0.42433 0.35139,-0.51715 z"
         style="font-family:'Andale Mono';-inkscape-font-specification:'Andale Mono, Normal';fill:#c6c6c6"
         id="path3628" />
      <path
         d="m 235.99605,183.28418 h -4.91952 v -0.9481 h 1.9824 v -7.26657 l -1.86969,0.93484 v -1.08733 l 2.02218,-1.04092 h 0.93484 v 8.45998 h 1.84979 z"
         style="font-family:'Andale Mono';-inkscape-font-specification:'Andale Mono, Normal';fill:#c6c6c6"
         id="path3630" />
      <path
         d="m 244.11127,183.05212 q -0.90169,0.41107 -1.9824,0.41107 -1.631,0 -2.60562,-0.98788 -0.96799,-0.99451 -0.96799,-2.63877 0,-1.64426 0.97462,-2.63214 0.98125,-0.99452 2.57247,-0.99452 1.04092,0 1.9824,0.36466 l -0.27184,0.85528 q -0.94147,-0.32488 -1.6973,-0.32488 -1.14037,0 -1.81001,0.73594 -0.66301,0.73594 -0.66301,1.99566 0,1.15363 0.68953,1.94261 0.68953,0.78235 1.79675,0.78235 0.87517,0 1.80338,-0.33814 z"
         style="font-family:'Andale Mono';-inkscape-font-specification:'Andale Mono, Normal';fill:#c6c6c6"
         id="path3632" />
      <path
         d="m 247.93019,178.41107 q 0.87517,-0.70942 1.90284,-0.70942 1.18678,0 1.97576,0.76246 0.79561,0.75583 0.79561,1.95587 0,1.31939 -0.70279,2.1813 -0.70279,0.86191 -1.87631,0.86191 -1.4984,0 -2.37357,-1.37243 -0.87517,-1.37905 -0.87517,-3.36808 0,-2.12162 0.90832,-3.54709 0.91495,-1.42547 2.49954,-1.42547 1.09396,0 1.88957,0.32488 l -0.17238,0.96799 q -0.92158,-0.33813 -1.68404,-0.33813 -1.0807,0 -1.68404,1.03429 -0.60334,1.03429 -0.60334,2.67192 z m 0.0331,0.93484 q 0,1.20004 0.56356,2.1813 0.56356,0.98125 1.41884,0.98125 0.72268,0 1.11385,-0.53041 0.39118,-0.5304 0.39118,-1.46525 0,-0.86191 -0.43096,-1.35916 -0.43095,-0.49726 -1.2133,-0.49726 -1.01441,0 -1.84317,0.68953 z"
         style="font-family:'Andale Mono';-inkscape-font-specification:'Andale Mono, Normal';fill:#c6c6c6"
         id="path3634" />
      <path
         d="m 257.72945,173.75012 q 1.48514,0 2.28075,1.27961 0.80223,1.27297 0.80223,3.58024 0,2.23434 -0.77571,3.54709 -0.77572,1.30613 -2.30727,1.30613 -1.47851,0 -2.28075,-1.27298 -0.80224,-1.27297 -0.80224,-3.58024 0,-2.24096 0.77572,-3.54709 0.78235,-1.31276 2.30727,-1.31276 z m 0,8.75834 q 0.98125,0 1.45199,-0.92821 0.47736,-0.93484 0.47736,-2.97028 0,-2.04206 -0.47736,-2.96364 -0.47074,-0.92821 -1.45199,-0.92821 -0.96799,0 -1.44536,0.9481 -0.47736,0.9481 -0.47736,2.94375 0,2.02218 0.47073,2.96365 0.47737,0.93484 1.45199,0.93484 z m -0.0265,-4.893 q 0.41769,0 0.70279,0.29172 0.29172,0.2851 0.29172,0.70279 0,0.43096 -0.29172,0.74257 -0.29173,0.30498 -0.70279,0.30498 -0.40444,0 -0.69616,-0.30498 -0.28509,-0.31161 -0.28509,-0.74257 0,-0.42432 0.27846,-0.70942 0.28509,-0.28509 0.70279,-0.28509 z"
         style="font-family:'Andale Mono';-inkscape-font-specification:'Andale Mono, Normal';fill:#c6c6c6"
         id="path3636" />
      <path
         d="m 268.76853,179.86306 h -4.74051 q 0,1.17352 0.67627,1.93598 0.6829,0.76246 1.67078,0.76246 0.94147,0 1.94261,-0.33814 l 0.17901,0.82876 q -0.91495,0.41107 -2.13488,0.41107 -1.53818,0 -2.47965,-0.98788 -0.94147,-0.98788 -0.94147,-2.66529 0,-1.64426 0.84202,-2.61888 0.84865,-0.98126 2.18792,-0.98126 1.19342,0 1.99566,0.90832 0.80224,0.90832 0.80224,2.41998 z m -1.12712,-0.84202 q 0,-0.80887 -0.50388,-1.35917 -0.50389,-0.55693 -1.12711,-0.55693 -0.80224,0 -1.33265,0.53041 -0.52378,0.53041 -0.58345,1.38569 z"
         style="font-family:'Andale Mono';-inkscape-font-specification:'Andale Mono, Normal';fill:#c6c6c6"
         id="path3638" />
      <path
         d="m 276.82408,174.70486 -3.70622,8.57932 h -1.11385 l 3.65317,-8.40694 h -4.38248 v -0.9481 h 5.54938 z"
         style="font-family:'Andale Mono';-inkscape-font-specification:'Andale Mono, Normal';fill:#c6c6c6"
         id="path3640" />
      <path
         d="m 284.91277,174.03522 -0.27184,0.84202 q -0.73594,-0.21216 -1.31938,-0.21216 -0.55693,0 -0.76909,0.31824 -0.20553,0.31161 -0.20553,1.26634 v 0.12598 h 2.32052 v 0.89506 h -2.32052 v 6.01348 h -1.0343 v -6.01348 h -1.73708 v -0.89506 h 1.73708 v -0.23206 q 0,-1.31938 0.45085,-1.84979 0.45084,-0.53041 1.55807,-0.53041 0.71605,0 1.59122,0.27184 z"
         style="font-family:'Andale Mono';-inkscape-font-specification:'Andale Mono, Normal';fill:#c6c6c6"
         id="path3642" />
      <path
         d="m 292.96168,183.28418 h -1.03429 v -0.99451 q -0.31824,0.51051 -0.91495,0.84201 -0.59008,0.33151 -1.24645,0.33151 -1.18679,0 -1.87632,-1.05418 -0.68952,-1.06082 -0.68952,-2.68519 0,-1.51828 0.71604,-2.51279 0.72268,-1.00115 1.90947,-1.00115 1.30612,0 2.10173,1.06082 v -3.34156 h 1.03429 z m -1.03429,-2.115 v -2.87082 q -0.74257,-1.19342 -1.79012,-1.19342 -0.85528,0 -1.35254,0.76246 -0.49725,0.75583 -0.49725,1.9161 0,1.19341 0.4641,1.97576 0.47074,0.77572 1.28624,0.77572 0.39117,0 0.78898,-0.21216 0.3978,-0.21217 0.7492,-0.63649 0.35139,-0.42433 0.35139,-0.51715 z"
         style="font-family:'Andale Mono';-inkscape-font-specification:'Andale Mono, Normal';fill:#c6c6c6"
         id="path3644" />
      <path
         d="m 301.19624,174.03522 -0.27183,0.84202 q -0.73594,-0.21216 -1.31938,-0.21216 -0.55693,0 -0.76909,0.31824 -0.20554,0.31161 -0.20554,1.26634 v 0.12598 h 2.32053 v 0.89506 h -2.32053 v 6.01348 h -1.03429 v -6.01348 h -1.73708 v -0.89506 h 1.73708 v -0.23206 q 0,-1.31938 0.45085,-1.84979 0.45084,-0.53041 1.55807,-0.53041 0.71604,0 1.59121,0.27184 z"
         style="font-family:'Andale Mono';-inkscape-font-specification:'Andale Mono, Normal';fill:#c6c6c6"
         id="path3646" />
      <path
         d="m 309.63633,181.12277 h -1.15363 v 2.16141 h -1.08734 v -2.16141 h -4.07087 v -0.82876 l 3.69296,-6.36487 h 1.46525 v 6.24553 h 1.15363 z m -2.24097,-0.9481 v -5.17146 l -2.97027,5.17146 z"
         style="font-family:'Andale Mono';-inkscape-font-specification:'Andale Mono, Normal';fill:#c6c6c6"
         id="path3648" />
      <path
         d="m 317.41341,183.28418 h -4.91951 v -0.9481 h 1.98239 v -7.26657 l -1.86968,0.93484 v -1.08733 l 2.02217,-1.04092 h 0.93484 v 8.45998 h 1.84979 z"
         style="font-family:'Andale Mono';-inkscape-font-specification:'Andale Mono, Normal';fill:#c6c6c6"
         id="path3650" />
      <path
         d="m 324.66008,178.78898 q -0.80887,0.70942 -1.90283,0.70942 -1.18678,0 -1.98239,-0.75583 -0.78898,-0.76246 -0.78898,-1.9625 0,-1.28623 0.75583,-2.16141 0.76246,-0.8818 1.9625,-0.8818 1.46525,0 2.28738,1.33928 0.82213,1.33928 0.82213,3.40123 0,2.06195 -0.96799,3.52057 -0.96137,1.45199 -2.5791,1.45199 -1.08734,0 -1.88295,-0.33151 l 0.17239,-0.96136 q 0.91495,0.33814 1.68404,0.33814 1.10059,0 1.75697,-1.06745 0.663,-1.06744 0.663,-2.63877 z m -0.0265,-0.93484 q 0,-1.25971 -0.51051,-2.20781 -0.51052,-0.95473 -1.33928,-0.95473 -0.7492,0 -1.20004,0.55692 -0.44422,0.5503 -0.44422,1.43873 0,0.8155 0.45085,1.33927 0.45747,0.51715 1.19341,0.51715 1.0144,0 1.7636,-0.62323 z"
         style="font-family:'Andale Mono';-inkscape-font-specification:'Andale Mono, Normal';fill:#c6c6c6"
         id="path3652" />
      <path
         d="m 334.06154,181.12277 h -1.15364 v 2.16141 h -1.08733 v -2.16141 h -4.07087 v -0.82876 l 3.69296,-6.36487 h 1.46524 v 6.24553 h 1.15364 z m -2.24097,-0.9481 v -5.17146 l -2.97027,5.17146 z"
         style="font-family:'Andale Mono';-inkscape-font-specification:'Andale Mono, Normal';fill:#c6c6c6"
         id="path3654" />
      <path
         d="m 339.74352,178.25858 q 0.85528,0.23868 1.37242,0.87517 0.51715,0.62986 0.51715,1.41883 0,1.2332 -0.96136,2.07522 -0.96136,0.83539 -2.26749,0.83539 -1.11385,0 -1.99565,-0.49063 l 0.21216,-0.89506 q 0.92158,0.43096 1.82327,0.43096 0.84865,0 1.44536,-0.52378 0.60334,-0.5304 0.60334,-1.35916 0,-0.8155 -0.64312,-1.32602 -0.64312,-0.51052 -1.70393,-0.51052 h -0.28509 v -0.89506 h 0.0796 q 1.02103,0 1.68404,-0.47736 0.663,-0.484 0.663,-1.2995 0,-0.66301 -0.47736,-1.03429 -0.47737,-0.37791 -1.31276,-0.37791 -0.72268,0 -1.61774,0.39117 l -0.14586,-0.93484 q 0.90169,-0.41107 1.81664,-0.41107 1.25309,0 2.06196,0.66301 0.8155,0.65638 0.8155,1.69067 0,0.71605 -0.49726,1.33928 -0.49062,0.6166 -1.18678,0.77572 z"
         style="font-family:'Andale Mono';-inkscape-font-specification:'Andale Mono, Normal';fill:#c6c6c6"
         id="path3656" />
      <path
         d="m 349.73505,183.28418 h -5.14494 v -0.78898 q 1.95587,-2.1813 2.53932,-2.92387 0.58344,-0.74257 0.9481,-1.55807 0.36465,-0.81549 0.36465,-1.62436 0,-0.78235 -0.47736,-1.2332 -0.47074,-0.45084 -1.32602,-0.45084 -0.65638,0 -1.7636,0.40443 l -0.15249,-0.93484 q 1.00114,-0.42433 2.0951,-0.42433 1.25309,0 2.01555,0.70942 0.76909,0.70279 0.76909,1.88295 0,0.84201 -0.39781,1.67077 -0.39117,0.82876 -1.00777,1.59122 -0.6166,0.76246 -2.40009,2.7316 h 3.93827 z"
         style="font-family:'Andale Mono';-inkscape-font-specification:'Andale Mono, Normal';fill:#ff6584"
         id="path3658" />
      <path
         d="m 355.43027,173.75012 q 1.48514,0 2.28075,1.27961 0.80224,1.27297 0.80224,3.58024 0,2.23434 -0.77572,3.54709 -0.77572,1.30613 -2.30727,1.30613 -1.4785,0 -2.28074,-1.27298 -0.80224,-1.27297 -0.80224,-3.58024 0,-2.24096 0.77572,-3.54709 0.78235,-1.31276 2.30726,-1.31276 z m 0,8.75834 q 0.98125,0 1.45199,-0.92821 0.47737,-0.93484 0.47737,-2.97028 0,-2.04206 -0.47737,-2.96364 -0.47074,-0.92821 -1.45199,-0.92821 -0.96799,0 -1.44535,0.9481 -0.47737,0.9481 -0.47737,2.94375 0,2.02218 0.47074,2.96365 0.47736,0.93484 1.45198,0.93484 z m -0.0265,-4.893 q 0.4177,0 0.70279,0.29172 0.29172,0.2851 0.29172,0.70279 0,0.43096 -0.29172,0.74257 -0.29172,0.30498 -0.70279,0.30498 -0.40443,0 -0.69616,-0.30498 -0.28509,-0.31161 -0.28509,-0.74257 0,-0.42432 0.27846,-0.70942 0.2851,-0.28509 0.70279,-0.28509 z"
         style="font-family:'Andale Mono';-inkscape-font-specification:'Andale Mono, Normal';fill:#ff6584"
         id="path3660" />
      <path
         d="m 366.01851,183.28418 h -5.14494 v -0.78898 q 1.95587,-2.1813 2.53932,-2.92387 0.58345,-0.74257 0.9481,-1.55807 0.36466,-0.81549 0.36466,-1.62436 0,-0.78235 -0.47737,-1.2332 -0.47074,-0.45084 -1.32602,-0.45084 -0.65637,0 -1.7636,0.40443 l -0.15249,-0.93484 q 1.00114,-0.42433 2.09511,-0.42433 1.25308,0 2.01554,0.70942 0.76909,0.70279 0.76909,1.88295 0,0.84201 -0.39781,1.67077 -0.39117,0.82876 -1.00777,1.59122 -0.61659,0.76246 -2.40009,2.7316 h 3.93827 z"
         style="font-family:'Andale Mono';-inkscape-font-specification:'Andale Mono, Normal';fill:#ff6584"
         id="path3662" />
      <path
         d="m 374.77022,181.12277 h -1.15364 v 2.16141 h -1.08733 v -2.16141 h -4.07087 v -0.82876 l 3.69296,-6.36487 h 1.46524 v 6.24553 h 1.15364 z m -2.24097,-0.9481 v -5.17146 l -2.97027,5.17146 z"
         style="font-family:'Andale Mono';-inkscape-font-specification:'Andale Mono, Normal';fill:#ff6584"
         id="path3664" />
      <path
         d="m 378.67534,177.70165 q 0.45084,-0.11934 0.8818,-0.11934 1.32601,0 2.0951,0.8155 0.76909,0.80887 0.76909,2.02217 0,1.27298 -0.89506,2.16141 -0.89506,0.8818 -2.1813,0.8818 -1.22656,0 -2.05532,-0.41107 l 0.21879,-0.92158 q 0.90169,0.37792 1.86305,0.37792 0.85528,0 1.37906,-0.5503 0.53041,-0.5503 0.53041,-1.53818 0,-0.93484 -0.49726,-1.43872 -0.49726,-0.50389 -1.2796,-0.50389 -0.57019,0 -1.12712,0.21879 l -0.64975,-0.29835 v -4.46867 h 4.27641 v 0.9481 h -3.3283 z"
         style="font-family:'Andale Mono';-inkscape-font-specification:'Andale Mono, Normal';fill:#bbbbbb"
         id="path3666" />
      <path
         d="m 390.86142,183.28418 h -1.02766 q -0.12597,-0.4177 -0.12597,-1.11386 -0.8818,1.29287 -2.40009,1.29287 -0.76909,0 -1.35917,-0.54367 -0.58344,-0.55029 -0.58344,-1.4122 0,-0.51052 0.20553,-0.90169 0.20553,-0.39118 0.60334,-0.65638 0.3978,-0.27184 0.96799,-0.42433 0.57019,-0.15912 1.35253,-0.21879 l 1.16027,-0.0928 v -0.33151 q 0,-1.77686 -1.65752,-1.77686 -0.39118,0 -0.99451,0.17239 -0.59671,0.16575 -1.02767,0.3978 l -0.27183,-0.74257 q 1.41221,-0.72268 2.62551,-0.72268 2.36031,0 2.36031,2.49954 v 2.97028 q 0,0.90169 0.17238,1.60448 z m -1.20667,-2.0487 v -1.25308 q -1.39895,0.12597 -1.92272,0.23868 -0.51715,0.10608 -0.9017,0.40444 -0.37791,0.29835 -0.37791,0.80886 0,0.46411 0.32487,0.7492 0.32488,0.2851 0.82876,0.2851 0.5503,0 1.09397,-0.32488 0.54366,-0.3315 0.95473,-0.90832 z"
         style="font-family:'Andale Mono';-inkscape-font-specification:'Andale Mono, Normal';fill:#bbbbbb"
         id="path3668" />
      <path
         d="m 399.03631,179.86306 h -4.7405 q 0,1.17352 0.67626,1.93598 0.6829,0.76246 1.67078,0.76246 0.94147,0 1.94262,-0.33814 l 0.17901,0.82876 q -0.91495,0.41107 -2.13489,0.41107 -1.53817,0 -2.47965,-0.98788 -0.94147,-0.98788 -0.94147,-2.66529 0,-1.64426 0.84202,-2.61888 0.84865,-0.98126 2.18793,-0.98126 1.19341,0 1.99565,0.90832 0.80224,0.90832 0.80224,2.41998 z m -1.12711,-0.84202 q 0,-0.80887 -0.50389,-1.35917 -0.50388,-0.55693 -1.12711,-0.55693 -0.80224,0 -1.33265,0.53041 -0.52377,0.53041 -0.58344,1.38569 z"
         style="font-family:'Andale Mono';-inkscape-font-specification:'Andale Mono, Normal';fill:#bbbbbb"
         id="path3670" />
      <path
         d="m 404.28069,173.75012 q 1.48514,0 2.28075,1.27961 0.80224,1.27297 0.80224,3.58024 0,2.23434 -0.77572,3.54709 -0.77572,1.30613 -2.30727,1.30613 -1.47851,0 -2.28075,-1.27298 -0.80224,-1.27297 -0.80224,-3.58024 0,-2.24096 0.77572,-3.54709 0.78235,-1.31276 2.30727,-1.31276 z m 0,8.75834 q 0.98125,0 1.45199,-0.92821 0.47736,-0.93484 0.47736,-2.97028 0,-2.04206 -0.47736,-2.96364 -0.47074,-0.92821 -1.45199,-0.92821 -0.96799,0 -1.44536,0.9481 -0.47736,0.9481 -0.47736,2.94375 0,2.02218 0.47073,2.96365 0.47737,0.93484 1.45199,0.93484 z m -0.0265,-4.893 q 0.4177,0 0.70279,0.29172 0.29172,0.2851 0.29172,0.70279 0,0.43096 -0.29172,0.74257 -0.29172,0.30498 -0.70279,0.30498 -0.40443,0 -0.69616,-0.30498 -0.28509,-0.31161 -0.28509,-0.74257 0,-0.42432 0.27846,-0.70942 0.2851,-0.28509 0.70279,-0.28509 z"
         style="font-family:'Andale Mono';-inkscape-font-specification:'Andale Mono, Normal';fill:#bbbbbb"
         id="path3672" />
      <path
         d="m 415.08772,183.05212 q -0.90169,0.41107 -1.98239,0.41107 -1.631,0 -2.60562,-0.98788 -0.96799,-0.99451 -0.96799,-2.63877 0,-1.64426 0.97462,-2.63214 0.98125,-0.99452 2.57247,-0.99452 1.04092,0 1.98239,0.36466 l -0.27183,0.85528 q -0.94147,-0.32488 -1.6973,-0.32488 -1.14038,0 -1.81001,0.73594 -0.66301,0.73594 -0.66301,1.99566 0,1.15363 0.68953,1.94261 0.68953,0.78235 1.79675,0.78235 0.87517,0 1.80338,-0.33814 z"
         style="font-family:'Andale Mono';-inkscape-font-specification:'Andale Mono, Normal';fill:#bbbbbb"
         id="path3674" />
      <path
         d="m 421.5189,178.1525 q 0.95473,0.27846 1.47851,0.9481 0.5304,0.66964 0.5304,1.5647 0,1.28623 -0.85528,2.04206 -0.84865,0.75583 -2.0951,0.75583 -1.30613,0 -2.14815,-0.76246 -0.83539,-0.76246 -0.83539,-2.02217 0,-0.88843 0.54367,-1.5647 0.54367,-0.67627 1.51829,-0.96136 -0.77572,-0.19891 -1.24646,-0.76246 -0.4641,-0.57019 -0.4641,-1.27298 0,-0.90169 0.71605,-1.631 0.71605,-0.73594 1.88957,-0.73594 1.16026,0 1.91609,0.72931 0.76246,0.72931 0.76246,1.63763 0,0.6829 -0.47737,1.25972 -0.47736,0.57018 -1.23319,0.77572 z m -0.96799,-0.45085 q 0.0332,0 0.31824,-0.0796 0.2851,-0.0796 0.484,-0.19227 0.20553,-0.11934 0.37791,-0.29836 0.17238,-0.17901 0.27847,-0.41769 0.10608,-0.24531 0.10608,-0.54367 0,-0.63648 -0.45748,-1.05418 -0.45747,-0.42432 -1.10722,-0.42432 -0.62986,0 -1.0807,0.43095 -0.45085,0.43096 -0.45085,1.04755 0,0.39118 0.15912,0.6829 0.16575,0.29172 0.40444,0.47074 0.24531,0.17901 0.55692,0.27846 0.31825,0.0994 0.41107,0.0994 z m 0,0.92821 q -1.81664,0.53041 -1.81664,1.99566 0,0.85528 0.55029,1.37242 0.5503,0.51052 1.29287,0.51052 0.76909,0 1.29286,-0.50389 0.53041,-0.51051 0.53041,-1.37905 0,-0.65638 -0.36465,-1.17353 -0.36466,-0.52377 -1.48514,-0.82213 z"
         style="font-family:'Andale Mono';-inkscape-font-specification:'Andale Mono, Normal';fill:#bbbbbb"
         id="path3676" />
      <path
         d="m 431.3712,183.28418 h -1.03429 v -0.99451 q -0.31825,0.51051 -0.91495,0.84201 -0.59008,0.33151 -1.24646,0.33151 -1.18678,0 -1.87631,-1.05418 -0.68953,-1.06082 -0.68953,-2.68519 0,-1.51828 0.71605,-2.51279 0.72268,-1.00115 1.90946,-1.00115 1.30613,0 2.10174,1.06082 v -3.34156 h 1.03429 z m -1.03429,-2.115 v -2.87082 q -0.74257,-1.19342 -1.79012,-1.19342 -0.85528,0 -1.35254,0.76246 -0.49726,0.75583 -0.49726,1.9161 0,1.19341 0.46411,1.97576 0.47074,0.77572 1.28623,0.77572 0.39118,0 0.78898,-0.21216 0.39781,-0.21217 0.7492,-0.63649 0.3514,-0.42433 0.3514,-0.51715 z"
         style="font-family:'Andale Mono';-inkscape-font-specification:'Andale Mono, Normal';fill:#bbbbbb"
         id="path3678" />
      <path
         d="m 439.60576,174.03522 -0.27183,0.84202 q -0.73594,-0.21216 -1.31939,-0.21216 -0.55693,0 -0.76909,0.31824 -0.20553,0.31161 -0.20553,1.26634 v 0.12598 h 2.32053 v 0.89506 h -2.32053 v 6.01348 h -1.03429 v -6.01348 h -1.73708 v -0.89506 h 1.73708 v -0.23206 q 0,-1.31938 0.45084,-1.84979 0.45085,-0.53041 1.55807,-0.53041 0.71605,0 1.59122,0.27184 z"
         style="font-family:'Andale Mono';-inkscape-font-specification:'Andale Mono, Normal';fill:#bbbbbb"
         id="path3680" />
      <path
         d="m 444.98937,173.75012 q 1.48514,0 2.28075,1.27961 0.80224,1.27297 0.80224,3.58024 0,2.23434 -0.77572,3.54709 -0.77572,1.30613 -2.30727,1.30613 -1.47851,0 -2.28075,-1.27298 -0.80224,-1.27297 -0.80224,-3.58024 0,-2.24096 0.77572,-3.54709 0.78235,-1.31276 2.30727,-1.31276 z m 0,8.75834 q 0.98125,0 1.45199,-0.92821 0.47736,-0.93484 0.47736,-2.97028 0,-2.04206 -0.47736,-2.96364 -0.47074,-0.92821 -1.45199,-0.92821 -0.96799,0 -1.44536,0.9481 -0.47736,0.9481 -0.47736,2.94375 0,2.02218 0.47073,2.96365 0.47737,0.93484 1.45199,0.93484 z m -0.0265,-4.893 q 0.4177,0 0.70279,0.29172 0.29172,0.2851 0.29172,0.70279 0,0.43096 -0.29172,0.74257 -0.29173,0.30498 -0.70279,0.30498 -0.40443,0 -0.69616,-0.30498 -0.28509,-0.31161 -0.28509,-0.74257 0,-0.42432 0.27846,-0.70942 0.2851,-0.28509 0.70279,-0.28509 z"
         style="font-family:'Andale Mono';-inkscape-font-specification:'Andale Mono, Normal';fill:#bbbbbb"
         id="path3682" />
      <path
         d="m 455.7964,183.05212 q -0.90169,0.41107 -1.98239,0.41107 -1.631,0 -2.60562,-0.98788 -0.96799,-0.99451 -0.96799,-2.63877 0,-1.64426 0.97462,-2.63214 0.98125,-0.99452 2.57247,-0.99452 1.04092,0 1.98239,0.36466 l -0.27183,0.85528 q -0.94147,-0.32488 -1.6973,-0.32488 -1.14038,0 -1.81001,0.73594 -0.66301,0.73594 -0.66301,1.99566 0,1.15363 0.68953,1.94261 0.68952,0.78235 1.79675,0.78235 0.87517,0 1.80338,-0.33814 z"
         style="font-family:'Andale Mono';-inkscape-font-specification:'Andale Mono, Normal';fill:#bbbbbb"
         id="path3684" />
      <path
         d="m 464.17019,179.86306 h -4.7405 q 0,1.17352 0.67626,1.93598 0.6829,0.76246 1.67078,0.76246 0.94148,0 1.94262,-0.33814 l 0.17901,0.82876 q -0.91495,0.41107 -2.13489,0.41107 -1.53817,0 -2.47965,-0.98788 -0.94147,-0.98788 -0.94147,-2.66529 0,-1.64426 0.84202,-2.61888 0.84865,-0.98126 2.18793,-0.98126 1.19341,0 1.99565,0.90832 0.80224,0.90832 0.80224,2.41998 z m -1.12711,-0.84202 q 0,-0.80887 -0.50389,-1.35917 -0.50388,-0.55693 -1.12711,-0.55693 -0.80224,0 -1.33265,0.53041 -0.52377,0.53041 -0.58344,1.38569 z"
         style="font-family:'Andale Mono';-inkscape-font-specification:'Andale Mono, Normal';fill:#bbbbbb"
         id="path3686" />
      <path
         d="m 467.75705,178.41107 q 0.87517,-0.70942 1.90283,-0.70942 1.18679,0 1.97577,0.76246 0.79561,0.75583 0.79561,1.95587 0,1.31939 -0.70279,2.1813 -0.70279,0.86191 -1.87631,0.86191 -1.4984,0 -2.37357,-1.37243 -0.87517,-1.37905 -0.87517,-3.36808 0,-2.12162 0.90832,-3.54709 0.91495,-1.42547 2.49954,-1.42547 1.09396,0 1.88957,0.32488 l -0.17238,0.96799 q -0.92158,-0.33813 -1.68404,-0.33813 -1.0807,0 -1.68404,1.03429 -0.60334,1.03429 -0.60334,2.67192 z m 0.0332,0.93484 q 0,1.20004 0.56356,2.1813 0.56356,0.98125 1.41884,0.98125 0.72267,0 1.11385,-0.53041 0.39117,-0.5304 0.39117,-1.46525 0,-0.86191 -0.43095,-1.35916 -0.43096,-0.49726 -1.21331,-0.49726 -1.0144,0 -1.84316,0.68953 z"
         style="font-family:'Andale Mono';-inkscape-font-specification:'Andale Mono, Normal';fill:#bbbbbb"
         id="path3688" />
      <path
         d="m 478.51106,178.1525 q 0.95473,0.27846 1.4785,0.9481 0.53041,0.66964 0.53041,1.5647 0,1.28623 -0.85528,2.04206 -0.84865,0.75583 -2.0951,0.75583 -1.30613,0 -2.14815,-0.76246 -0.83539,-0.76246 -0.83539,-2.02217 0,-0.88843 0.54367,-1.5647 0.54366,-0.67627 1.51829,-0.96136 -0.77572,-0.19891 -1.24646,-0.76246 -0.4641,-0.57019 -0.4641,-1.27298 0,-0.90169 0.71604,-1.631 0.71605,-0.73594 1.88958,-0.73594 1.16026,0 1.91609,0.72931 0.76246,0.72931 0.76246,1.63763 0,0.6829 -0.47737,1.25972 -0.47736,0.57018 -1.23319,0.77572 z m -0.96799,-0.45085 q 0.0331,0 0.31824,-0.0796 0.28509,-0.0796 0.484,-0.19227 0.20553,-0.11934 0.37791,-0.29836 0.17238,-0.17901 0.27846,-0.41769 0.10608,-0.24531 0.10608,-0.54367 0,-0.63648 -0.45747,-1.05418 -0.45748,-0.42432 -1.10722,-0.42432 -0.62986,0 -1.08071,0.43095 -0.45084,0.43096 -0.45084,1.04755 0,0.39118 0.15912,0.6829 0.16575,0.29172 0.40443,0.47074 0.24532,0.17901 0.55693,0.27846 0.31824,0.0994 0.41107,0.0994 z m 0,0.92821 q -1.81665,0.53041 -1.81665,1.99566 0,0.85528 0.5503,1.37242 0.5503,0.51052 1.29287,0.51052 0.76909,0 1.29286,-0.50389 0.53041,-0.51051 0.53041,-1.37905 0,-0.65638 -0.36466,-1.17353 -0.36465,-0.52377 -1.48513,-0.82213 z"
         style="font-family:'Andale Mono';-inkscape-font-specification:'Andale Mono, Normal';fill:#bbbbbb"
         id="path3690" />
      <path
         d="m 488.14455,183.28418 h -5.14494 v -0.78898 q 1.95587,-2.1813 2.53932,-2.92387 0.58344,-0.74257 0.9481,-1.55807 0.36465,-0.81549 0.36465,-1.62436 0,-0.78235 -0.47736,-1.2332 -0.47074,-0.45084 -1.32602,-0.45084 -0.65638,0 -1.7636,0.40443 l -0.15249,-0.93484 q 1.00114,-0.42433 2.0951,-0.42433 1.25309,0 2.01555,0.70942 0.76909,0.70279 0.76909,1.88295 0,0.84201 -0.39781,1.67077 -0.39117,0.82876 -1.00777,1.59122 -0.6166,0.76246 -2.40009,2.7316 h 3.93827 z"
         style="font-family:'Andale Mono';-inkscape-font-specification:'Andale Mono, Normal';fill:#bbbbbb"
         id="path3692" />
      <path
         d="m 496.5051,183.05212 q -0.9017,0.41107 -1.9824,0.41107 -1.631,0 -2.60562,-0.98788 -0.96799,-0.99451 -0.96799,-2.63877 0,-1.64426 0.97462,-2.63214 0.98125,-0.99452 2.57247,-0.99452 1.04092,0 1.98239,0.36466 l -0.27183,0.85528 q -0.94147,-0.32488 -1.6973,-0.32488 -1.14037,0 -1.81001,0.73594 -0.66301,0.73594 -0.66301,1.99566 0,1.15363 0.68953,1.94261 0.68953,0.78235 1.79675,0.78235 0.87517,0 1.80338,-0.33814 z"
         style="font-family:'Andale Mono';-inkscape-font-specification:'Andale Mono, Normal';fill:#bbbbbb"
         id="path3694" />
      <path
         d="m 500.32401,178.41107 q 0.87517,-0.70942 1.90283,-0.70942 1.18678,0 1.97576,0.76246 0.79561,0.75583 0.79561,1.95587 0,1.31939 -0.70279,2.1813 -0.70278,0.86191 -1.87631,0.86191 -1.4984,0 -2.37357,-1.37243 -0.87517,-1.37905 -0.87517,-3.36808 0,-2.12162 0.90833,-3.54709 0.91495,-1.42547 2.49953,-1.42547 1.09397,0 1.88958,0.32488 l -0.17239,0.96799 q -0.92158,-0.33813 -1.68404,-0.33813 -1.0807,0 -1.68404,1.03429 -0.60333,1.03429 -0.60333,2.67192 z m 0.0332,0.93484 q 0,1.20004 0.56355,2.1813 0.56356,0.98125 1.41884,0.98125 0.72268,0 1.11385,-0.53041 0.39118,-0.5304 0.39118,-1.46525 0,-0.86191 -0.43096,-1.35916 -0.43095,-0.49726 -1.2133,-0.49726 -1.0144,0 -1.84316,0.68953 z"
         style="font-family:'Andale Mono';-inkscape-font-specification:'Andale Mono, Normal';fill:#bbbbbb"
         id="path3696" />
      <path
         d="m 512.9344,174.70486 -3.70621,8.57932 h -1.11385 l 3.65317,-8.40694 h -4.38248 v -0.9481 h 5.54937 z"
         style="font-family:'Andale Mono';-inkscape-font-specification:'Andale Mono, Normal';fill:#bbbbbb"
         id="path3698" />
      <path
         d="m 521.07616,174.70486 -3.70622,8.57932 h -1.11385 l 3.65317,-8.40694 h -4.38248 v -0.9481 h 5.54938 z"
         style="font-family:'Andale Mono';-inkscape-font-specification:'Andale Mono, Normal';fill:#bbbbbb"
         id="path3700" />
    </g>
    <path
       style="fill:none;stroke:#d8d8d8;stroke-width:0.294692px;stroke-linecap:butt;stroke-linejoin:miter;stroke-opacity:1"
       d="m 33.59943,74.79126 c 0,0 2.39011,-0.002 2.40389,2.69658 0.0118,2.30815 2.30784,2.31094 2.30784,2.31094"
       id="path55863-6-7-5-1"
       sodipodi:nodetypes="csc" />
    <path
       style="fill:none;stroke:#d8d8d8;stroke-width:0.294692px;stroke-linecap:butt;stroke-linejoin:miter;stroke-opacity:1"
       d="m 33.59943,84.8063 c 0,0 2.39011,0.002 2.40389,-2.69658 0.0118,-2.30814 2.30784,-2.31094 2.30784,-2.31094"
       id="path55863-6-7-4-7-8"
       sodipodi:nodetypes="csc" />
    <path
       style="fill:none;stroke:#d8d8d8;stroke-width:0.294692px;stroke-linecap:butt;stroke-linejoin:miter;stroke-opacity:1"
       d="m -99.92613,79.82412 c 0,0 0,0 -5.9e-4,-2.72216 -5.1e-4,-2.30818 -2.30785,-2.31094 -2.30785,-2.31094"
       id="path55863-6-4-8-9-2-4"
       sodipodi:nodetypes="csc" />
    <circle
       cx="41.658344"
       cy="79.787315"
       r="1.8013443"
       fill="#fba304"
       data-name="Ellipse 266"
       id="circle14283-9-2-7-4-8-2-2-8"
       style="fill:none;stroke:#929292;stroke-width:0.451934;stroke-miterlimit:4;stroke-dasharray:none;stroke-opacity:1" />
  </g>
</svg>
