<?xml version="1.0" encoding="UTF-8" standalone="no"?>
<!-- Created with Inkscape (http://www.inkscape.org/) -->

<svg
   width="152.75119mm"
   height="26.004385mm"
   viewBox="0 0 152.75119 26.004385"
   version="1.1"
   id="svg92229"
   inkscape:version="1.1.1 (c3084ef, 2021-09-22)"
   sodipodi:docname="distribits_logo_a.svg"
   xmlns:inkscape="http://www.inkscape.org/namespaces/inkscape"
   xmlns:sodipodi="http://sodipodi.sourceforge.net/DTD/sodipodi-0.dtd"
   xmlns="http://www.w3.org/2000/svg"
   xmlns:svg="http://www.w3.org/2000/svg">
  <sodipodi:namedview
     id="namedview92231"
     pagecolor="#ffffff"
     bordercolor="#666666"
     borderopacity="1.0"
     inkscape:pageshadow="2"
     inkscape:pageopacity="0.0"
     inkscape:pagecheckerboard="0"
     inkscape:document-units="mm"
     showgrid="false"
     inkscape:zoom="0.66368547"
     inkscape:cx="354.08339"
     inkscape:cy="324.702"
     inkscape:window-width="1312"
     inkscape:window-height="969"
     inkscape:window-x="0"
     inkscape:window-y="25"
     inkscape:window-maximized="0"
     inkscape:current-layer="layer1" />
  <defs
     id="defs92226">
    <rect
       x="196.67986"
       y="173.77878"
       width="410.70233"
       height="106.79584"
       id="rect16326-2-4-4-3-8-1-5" />
  </defs>
  <g
     inkscape:label="Layer 1"
     inkscape:groupmode="layer"
     id="layer1"
     transform="translate(109.06553,-67.526663)">
    <g
       id="g92157"
       transform="translate(-376.5041,-154.89536)">
      <path
         style="fill:none;stroke:#d8d8d8;stroke-width:0.294692px;stroke-linecap:butt;stroke-linejoin:miter;stroke-opacity:1"
         d="m 279.08795,239.689 c 0,0 -2.50292,0.13301 -2.50998,-2.52792"
         id="path55863-7-3-0-4-6-0"
         sodipodi:nodetypes="cc" />
      <path
         style="fill:none;stroke:#d8d8d8;stroke-width:0.294692px;stroke-linecap:butt;stroke-linejoin:miter;stroke-opacity:1"
         d="m 276.57797,237.33019 v -2.61071"
         id="path29989-50-9-10-0-4-4"
         sodipodi:nodetypes="cc" />
      <path
         style="fill:none;stroke:#d8d8d8;stroke-width:0.294692px;stroke-linecap:butt;stroke-linejoin:miter;stroke-opacity:1"
         d="m 278.98126,224.67886 c 0,0 -2.39011,-0.002 -2.40388,2.69658 -0.0118,2.30814 -2.30785,2.31094 -2.30785,2.31094"
         id="path55863-6-3-6"
         sodipodi:nodetypes="csc" />
      <path
         style="fill:none;stroke:#d8d8d8;stroke-width:0.294692px;stroke-linecap:butt;stroke-linejoin:miter;stroke-opacity:1"
         d="m 349.62534,224.69191 c 0,0 -2.39011,-0.002 -2.40389,2.69658 -0.0118,2.30814 -2.30784,2.31094 -2.30784,2.31094"
         id="path55863-6-79-4-58"
         sodipodi:nodetypes="csc" />
      <path
         style="fill:none;stroke:#d8d8d8;stroke-width:0.294692px;stroke-linecap:butt;stroke-linejoin:miter;stroke-opacity:1"
         d="m 306.55724,229.66894 c 0,0 -2.39011,0.002 -2.40389,-2.69658 -0.0118,-2.30814 -2.30784,-2.31094 -2.30784,-2.31094"
         id="path55863-6-4-4-3-74"
         sodipodi:nodetypes="csc" />
      <path
         style="fill:none;stroke:#d8d8d8;stroke-width:0.294692px;stroke-linecap:butt;stroke-linejoin:miter;stroke-opacity:1"
         d="m 278.98126,224.67886 h 23.01729"
         id="path29989-50-3-3-1-93"
         sodipodi:nodetypes="cc" />
      <path
         style="fill:none;stroke:#d8d8d8;stroke-width:0.294692px;stroke-linecap:butt;stroke-linejoin:miter;stroke-opacity:1"
         d="m 349.61119,224.68885 h 32.01219"
         id="path29989-50-3-3-0-4-4"
         sodipodi:nodetypes="cc" />
      <path
         style="fill:none;stroke:#d8d8d8;stroke-width:0.294692px;stroke-linecap:butt;stroke-linejoin:miter;stroke-opacity:1"
         d="m 271.31927,229.6826 h 138.8181"
         id="path29989-0-9-8-0-8-6"
         sodipodi:nodetypes="cc" />
      <path
         style="fill:none;stroke:#d8d8d8;stroke-width:0.294692px;stroke-linecap:butt;stroke-linejoin:miter;stroke-opacity:1"
         d="M 276.62373,234.68633 H 416.3655"
         id="path29989-68-8-8-9-9-4"
         sodipodi:nodetypes="cc" />
      <path
         style="fill:none;stroke:#d8d8d8;stroke-width:0.294692px;stroke-linecap:butt;stroke-linejoin:miter;stroke-opacity:1"
         d="M 279.06941,239.69008 H 410.18825"
         id="path29989-4-2-1-6-52-1"
         sodipodi:nodetypes="cc" />
      <path
         d="m 289.75355,240.24606 h -1.69284 v -1.62772 q -0.52087,0.83557 -1.4975,1.37813 -0.96579,0.54259 -2.04009,0.54259 -1.94241,0 -3.07098,-1.7254 -1.12855,-1.73624 -1.12855,-4.39485 0,-2.485 1.17195,-4.11273 1.18282,-1.63857 3.12524,-1.63857 2.13774,0 3.43993,1.73624 v -5.46917 h 1.69284 z m -1.69284,-3.46163 v -4.6987 q -1.21536,-1.95327 -2.9299,-1.95327 -1.39985,0 -2.21372,1.24792 -0.81386,1.23708 -0.81386,3.13609 0,1.95326 0.75961,3.23374 0.77046,1.26963 2.10519,1.26963 0.64024,0 1.29134,-0.34725 0.65109,-0.34725 1.22621,-1.04175 0.57513,-0.69449 0.57513,-0.84641 z"
         style="font-size:48px;line-height:0.8;font-family:'Andale Mono';-inkscape-font-specification:'Andale Mono, Normal';white-space:pre;stroke-width:0.462998"
         id="path62571-0-8-2-1" />
      <path
         d="m 300.3012,240.24606 h -1.69283 v -9.84231 h -3.33141 v -1.46495 h 5.02424 z"
         style="font-size:48px;line-height:0.8;font-family:'Andale Mono';-inkscape-font-specification:'Andale Mono, Normal';white-space:pre;stroke-width:0.462998"
         id="path62573-7-4-2-5"
         sodipodi:nodetypes="ccccccc" />
      <path
         d="m 315.26542,230.55567 q -1.42154,-0.46661 -2.68032,-0.46661 -1.37813,0 -2.18114,0.46661 -0.80302,0.45576 -0.80302,1.22623 0,0.48831 0.36896,0.85725 0.36894,0.35811 1.4758,0.6728 l 1.61688,0.46662 q 1.1177,0.31469 1.82305,0.75959 0.70535,0.43407 1.05259,1.06346 0.3581,0.61853 0.3581,1.44324 0,1.61688 -1.35644,2.56096 -1.35643,0.93323 -3.45077,0.93323 -2.08349,0 -3.43993,-0.62939 l 0.32555,-1.46495 q 1.42154,0.6728 3.04927,0.6728 1.4107,0 2.28966,-0.52088 0.88983,-0.53172 0.88983,-1.39984 0,-0.58598 -0.44491,-1.04175 -0.43406,-0.46661 -2.06179,-0.96578 -1.31303,-0.4015 -1.93157,-0.59683 -0.61853,-0.20618 -1.15026,-0.59683 -0.53171,-0.39065 -0.81386,-0.93324 -0.27129,-0.54257 -0.27129,-1.21536 0,-1.46496 1.28048,-2.32223 1.28048,-0.85726 3.39652,-0.85726 1.36729,0 3.03843,0.46661 z"
         style="font-size:48px;line-height:0.8;font-family:'Andale Mono';-inkscape-font-specification:'Andale Mono, Normal';white-space:pre;stroke-width:0.462998"
         id="path62575-2-6-5-8" />
      <path
         d="m 329.88241,239.73604 q -1.70369,0.78131 -3.35311,0.78131 -3.02758,0 -3.02758,-3.2012 v -6.9124 h -2.1703 v -1.46495 h 2.1703 v -3.09268 h 1.64943 v 3.09268 h 3.84143 v 1.46495 h -3.84143 v 6.4675 q 0,1.03088 0.45577,1.60601 0.45576,0.56429 1.23707,0.56429 1.38899,0 2.74542,-0.61854 z"
         style="font-size:48px;line-height:0.8;font-family:'Andale Mono';-inkscape-font-specification:'Andale Mono, Normal';white-space:pre;stroke-width:0.462998"
         id="path62577-3-6-9-3" />
      <path
         d="m 343.27316,229.24264 -0.68365,1.62772 q -1.1177,-0.48832 -1.93156,-0.48832 -0.74875,0 -1.46496,0.43406 -0.71619,0.42321 -1.32388,1.22622 -0.59683,0.79216 -0.59683,0.88983 v 7.31391 h -1.68199 V 228.9388 h 1.68199 v 2.28966 q 1.35644,-2.56095 3.51588,-2.56095 1.28048,0 2.485,0.57513 z"
         style="font-size:48px;line-height:0.8;font-family:'Andale Mono';-inkscape-font-specification:'Andale Mono, Normal';white-space:pre;stroke-width:0.462998"
         id="path62579-5-2-3-7" />
      <path
         d="m 353.60379,240.24606 h -1.69283 v -9.84231 h -3.33141 v -1.46495 h 5.02424 z"
         style="font-size:48px;line-height:0.8;font-family:'Andale Mono';-inkscape-font-specification:'Andale Mono, Normal';white-space:pre;stroke-width:0.462998"
         id="path62581-8-5-3-2"
         sodipodi:nodetypes="ccccccc" />
      <path
         d="m 362.7299,230.40375 q 0.56429,-0.78132 1.51921,-1.25878 0.96579,-0.47746 2.02924,-0.47746 1.97497,0 3.07097,1.58432 1.10686,1.58432 1.10686,4.16697 0,2.61522 -1.17197,4.37316 -1.17196,1.74709 -3.13609,1.74709 -1.05259,0 -1.97497,-0.52087 -0.91152,-0.53173 -1.44325,-1.39984 v 1.62772 h -1.69283 v -15.31148 h 1.69283 z m 0,1.68198 v 4.6987 q 0.47747,0.95493 1.29133,1.59518 0.81386,0.64023 1.68199,0.64023 1.36728,0 2.1703,-1.30217 0.81386,-1.30219 0.81386,-3.2012 0,-1.95327 -0.77046,-3.16864 -0.77045,-1.21537 -2.14859,-1.21537 -1.79051,0 -3.03843,1.95327 z"
         style="font-size:48px;line-height:0.8;font-family:'Andale Mono';-inkscape-font-specification:'Andale Mono, Normal';white-space:pre;stroke-width:0.462998"
         id="path62583-3-1-0-3" />
      <path
         d="m 380.25509,240.24606 h -1.69284 v -9.84231 h -3.33141 v -1.46495 h 5.02425 z"
         style="font-size:48px;line-height:0.8;font-family:'Andale Mono';-inkscape-font-specification:'Andale Mono, Normal';white-space:pre;stroke-width:0.462998"
         id="path62585-5-7-9-51"
         sodipodi:nodetypes="ccccccc" />
      <path
         d="m 396.51064,239.73604 q -1.70369,0.78131 -3.35312,0.78131 -3.02756,0 -3.02756,-3.2012 v -6.9124 h -2.1703 v -1.46495 h 2.1703 v -3.09268 h 1.64942 v 3.09268 h 3.84143 v 1.46495 h -3.84143 v 6.4675 q 0,1.03088 0.45576,1.60601 0.45577,0.56429 1.23708,0.56429 1.38899,0 2.74543,-0.61854 z"
         style="font-size:48px;line-height:0.8;font-family:'Andale Mono';-inkscape-font-specification:'Andale Mono, Normal';white-space:pre;stroke-width:0.462998"
         id="path62587-6-1-5-3" />
      <path
         d="m 408.54495,230.55567 q -1.42155,-0.46661 -2.68032,-0.46661 -1.37814,0 -2.18116,0.46661 -0.803,0.45576 -0.803,1.22623 0,0.48831 0.36895,0.85725 0.36895,0.35811 1.4758,0.6728 l 1.61688,0.46662 q 1.1177,0.31469 1.82305,0.75959 0.70535,0.43407 1.0526,1.06346 0.3581,0.61853 0.3581,1.44324 0,1.61688 -1.35644,2.56096 -1.35644,0.93323 -3.45079,0.93323 -2.08348,0 -3.43991,-0.62939 l 0.32554,-1.46495 q 1.42155,0.6728 3.04927,0.6728 1.41069,0 2.28967,-0.52088 0.88982,-0.53172 0.88982,-1.39984 0,-0.58598 -0.44491,-1.04175 -0.43406,-0.46661 -2.06179,-0.96578 -1.31302,-0.4015 -1.93157,-0.59683 -0.61853,-0.20618 -1.15025,-0.59683 -0.53173,-0.39065 -0.81386,-0.93324 -0.27129,-0.54257 -0.27129,-1.21536 0,-1.46496 1.28048,-2.32223 1.28047,-0.85726 3.39652,-0.85726 1.36729,0 3.03842,0.46661 z"
         style="font-size:48px;line-height:0.8;font-family:'Andale Mono';-inkscape-font-specification:'Andale Mono, Normal';white-space:pre;stroke-width:0.462998"
         id="path62589-1-8-4-8" />
      <circle
         cx="299.46048"
         cy="224.64174"
         r="2.2197158"
         fill="#fba304"
         data-name="Ellipse 266"
         id="circle14283-9-2-7-4-9-7"
         style="fill:#ff6584;fill-opacity:1;stroke-width:1.22501" />
      <circle
         cx="269.46588"
         cy="229.79857"
         r="1.8013443"
         fill="#fba304"
         data-name="Ellipse 266"
         id="circle14283-9-2-7-4-8-1-0"
         style="fill:none;stroke:#929292;stroke-width:0.451934;stroke-miterlimit:4;stroke-dasharray:none;stroke-opacity:1" />
      <circle
         cx="299.46048"
         cy="229.66652"
         r="1.1509176"
         fill="#fba304"
         data-name="Ellipse 266"
         id="circle14283-9-7-09-9-0-93-6"
         style="fill:#ff6584;fill-opacity:1;stroke-width:0.635164" />
      <circle
         cx="299.46048"
         cy="239.88402"
         r="1.1509176"
         fill="#fba304"
         data-name="Ellipse 266"
         id="circle14283-9-7-9-53-2-7-8-9"
         style="fill:#ff6584;fill-opacity:1;stroke-width:0.635164" />
      <circle
         cx="352.73648"
         cy="224.64174"
         r="2.2197158"
         fill="#fba304"
         data-name="Ellipse 266"
         id="circle14283-9-1-9-8-1-7-1"
         style="fill:#ff6584;fill-opacity:1;stroke-width:1.22501" />
      <circle
         cx="352.73648"
         cy="229.66652"
         r="1.1509176"
         fill="#fba304"
         data-name="Ellipse 266"
         id="circle14283-9-7-14-8-3-2-0-9"
         style="fill:#ff6584;fill-opacity:1;stroke-width:0.635164" />
      <circle
         cx="352.73648"
         cy="239.88402"
         r="1.1509176"
         fill="#fba304"
         data-name="Ellipse 266"
         id="circle14283-9-7-9-9-9-9-2-0-0"
         style="fill:#ff6584;fill-opacity:1;stroke-width:0.635164" />
      <path
         style="fill:none;stroke:#d8d8d8;stroke-width:0.294692px;stroke-linecap:butt;stroke-linejoin:miter;stroke-opacity:1"
         d="m 385.95874,229.65295 c 0,0 -2.39011,0.002 -2.40387,-2.69658 -0.0118,-2.30814 -2.30786,-2.31094 -2.30786,-2.31094"
         id="path55863-6-4-0-9-4"
         sodipodi:nodetypes="csc" />
      <circle
         cx="379.49396"
         cy="224.64174"
         r="2.2197158"
         fill="#fba304"
         data-name="Ellipse 266"
         id="circle14283-9-0-1-6-7-3-5"
         style="fill:#ff6584;fill-opacity:1;stroke-width:1.22501" />
      <circle
         cx="379.49396"
         cy="229.66652"
         r="1.1509176"
         fill="#fba304"
         data-name="Ellipse 266"
         id="circle14283-9-7-7-2-4-4-3-8"
         style="fill:#ff6584;fill-opacity:1;stroke-width:0.635164" />
      <circle
         cx="379.49396"
         cy="239.88402"
         r="1.1509176"
         fill="#fba304"
         data-name="Ellipse 266"
         id="circle14283-9-7-9-5-8-7-7-6-17"
         style="fill:#ff6584;fill-opacity:1;stroke-width:0.635164" />
      <circle
         cx="288.98059"
         cy="224.64174"
         r="1.1509176"
         fill="#fba304"
         data-name="Ellipse 266"
         id="circle14283-9-7-1-0-3-7-0-1"
         style="fill:#ff6584;fill-opacity:1;stroke-width:0.635164" />
      <circle
         cx="288.98059"
         cy="239.88402"
         r="1.1509176"
         fill="#fba304"
         data-name="Ellipse 266"
         id="circle14283-9-7-6-1-1-3-5-3"
         style="fill:#ff6584;fill-opacity:1;stroke-width:0.635164" />
      <circle
         cx="315.30792"
         cy="229.66652"
         r="1.1509176"
         fill="#fba304"
         data-name="Ellipse 266"
         id="circle14283-9-7-0-8-4-9-4-08"
         style="fill:#ff6584;fill-opacity:1;stroke-width:0.635164" />
      <circle
         cx="308.77783"
         cy="239.38269"
         r="1.1509176"
         fill="#fba304"
         data-name="Ellipse 266"
         id="circle14283-9-7-44-14-9-3-1-5"
         style="fill:#ff6584;fill-opacity:1;stroke-width:0.635164" />
      <circle
         cx="408.72009"
         cy="229.66652"
         r="1.1509176"
         fill="#fba304"
         data-name="Ellipse 266"
         id="circle14283-9-7-0-4-9-6-7-3-6"
         style="fill:#ff6584;fill-opacity:1;stroke-width:0.635164" />
      <circle
         cx="402.19003"
         cy="239.38269"
         r="1.1509176"
         fill="#fba304"
         data-name="Ellipse 266"
         id="circle14283-9-7-44-1-5-9-1-3-43"
         style="fill:#ff6584;fill-opacity:1;stroke-width:0.635164" />
      <circle
         cx="329.02939"
         cy="229.66652"
         r="1.1509176"
         fill="#fba304"
         data-name="Ellipse 266"
         id="circle14283-9-7-97-0-0-7-8-4"
         style="fill:#ff6584;fill-opacity:1;stroke-width:0.635164" />
      <circle
         cx="320.26447"
         cy="229.66652"
         r="1.1509176"
         fill="#fba304"
         data-name="Ellipse 266"
         id="circle14283-9-7-53-2-3-5-3-7"
         style="fill:#ff6584;fill-opacity:1;stroke-width:0.635164" />
      <circle
         cx="329.02939"
         cy="239.38269"
         r="1.1509176"
         fill="#fba304"
         data-name="Ellipse 266"
         id="circle14283-9-7-90-3-6-7-11-5"
         style="fill:#ff6584;fill-opacity:1;stroke-width:0.635164" />
      <circle
         cx="395.77148"
         cy="229.66652"
         r="1.1509176"
         fill="#fba304"
         data-name="Ellipse 266"
         id="circle14283-9-7-97-4-9-5-4-7-9"
         style="fill:#ff6584;fill-opacity:1;stroke-width:0.635164" />
      <circle
         cx="387.00964"
         cy="229.66652"
         r="1.1509176"
         fill="#fba304"
         data-name="Ellipse 266"
         id="circle14283-9-7-53-0-0-4-4-9-3"
         style="fill:#ff6584;fill-opacity:1;stroke-width:0.635164" />
      <circle
         cx="395.77148"
         cy="239.38269"
         r="1.1509176"
         fill="#fba304"
         data-name="Ellipse 266"
         id="circle14283-9-7-90-0-1-2-9-2-6"
         style="fill:#ff6584;fill-opacity:1;stroke-width:0.635164" />
      <circle
         cx="336.44662"
         cy="229.69708"
         r="1.1509176"
         fill="#fba304"
         data-name="Ellipse 266"
         id="circle14283-9-7-63-3-3-9-90-51"
         style="fill:#ff6584;fill-opacity:1;stroke-width:0.635164" />
      <circle
         cx="342.74988"
         cy="229.66652"
         r="1.1509176"
         fill="#fba304"
         data-name="Ellipse 266"
         id="circle14283-9-7-2-6-1-6-1-8"
         style="fill:#ff6584;fill-opacity:1;stroke-width:0.635164" />
      <circle
         cx="361.97418"
         cy="224.64174"
         r="1.1509176"
         fill="#fba304"
         data-name="Ellipse 266"
         id="circle14283-9-7-48-4-2-6-6-9"
         style="fill:#ff6584;fill-opacity:1;stroke-width:0.635164" />
      <circle
         cx="361.97418"
         cy="239.88402"
         r="1.1509176"
         fill="#fba304"
         data-name="Ellipse 266"
         id="circle14283-9-7-8-0-5-2-0-09"
         style="fill:#ff6584;fill-opacity:1;stroke-width:0.635164" />
      <circle
         cx="336.33163"
         cy="239.88402"
         r="1.1509176"
         fill="#fba304"
         data-name="Ellipse 266"
         id="circle14283-9-7-9-7-2-6-3-4-7"
         style="fill:#ff6584;fill-opacity:1;stroke-width:0.635164" />
      <text
         xml:space="preserve"
         transform="matrix(0.47063347,0,0,0.47063347,174.53216,162.08249)"
         id="text16324-1-7-4-4-5-3-2"
         style="font-size:13.5784px;line-height:0.8;font-family:'Nanum Pen';-inkscape-font-specification:'Nanum Pen, Normal';white-space:pre;shape-inside:url(#rect16326-2-4-4-3-8-1-5)"><tspan
           x="196.67969"
           y="183.28418"
           id="tspan92627"><tspan
             style="font-family:'Andale Mono';-inkscape-font-specification:'Andale Mono, Normal';fill:#c6c6c6"
             id="tspan92621">8a6d1c60e7fdf41943</tspan><tspan
             style="font-family:'Andale Mono';-inkscape-font-specification:'Andale Mono, Normal';fill:#ff6584"
             id="tspan92623">2024</tspan><tspan
             style="font-family:'Andale Mono';-inkscape-font-specification:'Andale Mono, Normal';fill:#bbbbbb"
             id="tspan92625">5ae0c8df0ce682c677</tspan></tspan></text>
      <path
         style="fill:none;stroke:#d8d8d8;stroke-width:0.294692px;stroke-linecap:butt;stroke-linejoin:miter;stroke-opacity:1"
         d="m 410.10353,229.68662 c 0,0 2.39011,-0.002 2.40389,2.69658 0.0118,2.30815 2.30784,2.31094 2.30784,2.31094"
         id="path55863-6-7-5-1"
         sodipodi:nodetypes="csc" />
      <path
         style="fill:none;stroke:#d8d8d8;stroke-width:0.294692px;stroke-linecap:butt;stroke-linejoin:miter;stroke-opacity:1"
         d="m 410.10353,239.70166 c 0,0 2.39011,0.002 2.40389,-2.69658 0.0118,-2.30814 2.30784,-2.31094 2.30784,-2.31094"
         id="path55863-6-7-4-7-8"
         sodipodi:nodetypes="csc" />
      <path
         style="fill:none;stroke:#d8d8d8;stroke-width:0.294692px;stroke-linecap:butt;stroke-linejoin:miter;stroke-opacity:1"
         d="m 276.57797,234.71948 c 0,0 0,0 -5.9e-4,-2.72216 -5.1e-4,-2.30818 -2.30785,-2.31094 -2.30785,-2.31094"
         id="path55863-6-4-8-9-2-4"
         sodipodi:nodetypes="csc" />
      <circle
         cx="418.16245"
         cy="234.68268"
         r="1.8013443"
         fill="#fba304"
         data-name="Ellipse 266"
         id="circle14283-9-2-7-4-8-2-2-8"
         style="fill:none;stroke:#929292;stroke-width:0.451934;stroke-miterlimit:4;stroke-dasharray:none;stroke-opacity:1" />
    </g>
  </g>
</svg>
